<svg id="Layer_1" data-name="Layer 1" xmlns="http://www.w3.org/2000/svg" viewBox="0 0 150 150"><path d="M10.32,54.11h6.84V80.69c0,6.48,3.66,9.54,9.42,9.54s9.48-3.06,9.48-9.54V54.11H42.9V80.57c0,10.62-7.68,15.66-16.38,15.66s-16.2-5-16.2-15.66Z" fill="#222"/><path d="M51.78,54.11h6.84v41.7H51.78Z" fill="#222"/><path d="M67.56,54.11H74.4V80.69c0,6.48,3.66,9.54,9.42,9.54s9.48-3.06,9.48-9.54V54.11h6.84V80.57c0,10.62-7.68,15.66-16.38,15.66s-16.2-5-16.2-15.66Z" fill="#222"/><path d="M124,80.69,115.2,95.81h-7.62l13-20.82-13-20.88h7.68l9.48,15.24,8.88-15.24h7.62L128.16,75l13,20.82h-7.68Z" fill="#222"/></svg>