<svg id="Layer_1" data-name="Layer 1" xmlns="http://www.w3.org/2000/svg" viewBox="0 0 150 150"><path d="M36.51,116.38H30.79q-.3-14.47-1.67-27.24h-.05l-8.71,27.24H16L7.35,89.14h0q-1,12.26-1.22,27.24H.87Q1.37,98.16,3.4,82.2h7.09l8.25,25.12h.05L27.1,82.2h6.78q2.23,18.69,2.63,34.18M61.32,91.17q-3.49,19-9.21,27.55-4.45,6.63-9.78,6.63a9.56,9.56,0,0,1-3.49-.86v-3a18.11,18.11,0,0,0,2.38.15,5.75,5.75,0,0,0,4-1.37A5,5,0,0,0,47,116.49a25,25,0,0,0-1.41-5.83L39.35,91.17H45l4.5,14.58q1.53,5,1.27,6.94a96.1,96.1,0,0,0,5.17-21.53h5.41Z" fill="#222"/><path d="M137.48,116.38H121.22V82.2h5.47v30h10.79Zm-20.51.83-6.28-3.1a11.91,11.91,0,0,0,1.57-1.53q4-4.69,4-13.92,0-17-13.32-17c-4.35,0-7.75,1.43-10.17,4.3q-4,4.71-4,13.88,0,9,3.54,13.21,3.24,3.8,9.77,3.8a15.81,15.81,0,0,0,4.48-.6l8.18,4.76Zm-20.35-7.66q-2.09-3.35-2.08-10.74,0-12.9,7.85-12.91a6.58,6.58,0,0,1,6,3.09q2.07,3.35,2.08,10.63,0,13-7.85,13a6.57,6.57,0,0,1-6-3.09m-10.24-2.64a9,9,0,0,1-3.19,7.14,12.55,12.55,0,0,1-8.55,2.78,17.09,17.09,0,0,1-9.72-3.19l1.47-2.93a16.64,16.64,0,0,0,7.34,2,7.71,7.71,0,0,0,4.83-1.36,4.64,4.64,0,0,0,1.87-3.8c0-2-1.42-3.76-4-5.22C74,101,69.22,98.29,69.22,98.29c-2.59-1.89-3.89-3.93-3.89-7.27a8.49,8.49,0,0,1,2.91-6.71,11,11,0,0,1,7.52-2.56,15.61,15.61,0,0,1,8.65,2.53l-1.32,2.94a16.6,16.6,0,0,0-6.57-1.42,5.84,5.84,0,0,0-4,1.27,4.22,4.22,0,0,0-1.53,3.24c0,2,1.44,3.78,4.11,5.26,2.43,1.32,7.34,4.12,7.34,4.12,2.66,1.89,4,3.9,4,7.22" fill="#222"/><path d="M144.34,70.76a18.93,18.93,0,0,0-8,1.15c-.62.25-1.61.25-1.7,1,.34.34.38.87.67,1.33a9.54,9.54,0,0,0,2.14,2.51c.87.67,1.74,1.32,2.65,1.9,1.61,1,3.43,1.57,5,2.57.91.57,1.82,1.32,2.73,1.94.45.33.74.86,1.32,1.07v-.13c-.29-.37-.37-.9-.66-1.32l-1.24-1.19a19.72,19.72,0,0,0-4.29-4.17c-1.32-.91-4.22-2.15-4.75-3.68l-.09-.08A15.34,15.34,0,0,0,141,73c1.41-.37,2.69-.28,4.13-.65.66-.17,1.32-.38,2-.58v-.37c-.75-.75-1.28-1.74-2.07-2.44a55,55,0,0,0-6.81-5.08c-1.29-.83-2.93-1.36-4.3-2.06-.49-.25-1.32-.38-1.61-.79a16.94,16.94,0,0,1-1.7-3.18c-1.19-2.27-2.35-4.79-3.38-7.19a42.5,42.5,0,0,0-2.11-4.7c-4.25-7-8.87-11.28-16-15.45a19.59,19.59,0,0,0-5.28-1.69l-3.1-.17a16.92,16.92,0,0,1-1.9-1.44c-2.36-1.49-8.43-4.71-10.16-.46-1.12,2.69,1.65,5.33,2.6,6.69a18.84,18.84,0,0,1,2.11,3.1c.29.7.37,1.45.66,2.19a49.26,49.26,0,0,0,2.15,5.54,19.28,19.28,0,0,0,1.52,2.55c.34.46.91.66,1,1.41-.58.82-.62,2.06-1,3.09C96.31,56,96.89,61.79,99,65.22c.66,1,2.23,3.31,4.33,2.43,1.86-.74,1.45-3.09,2-5.16.12-.49,0-.82.28-1.15v.08c.58,1.16,1.16,2.27,1.7,3.43a23.51,23.51,0,0,0,5.37,5.53c1,.75,1.77,2,3,2.48v-.12h-.08a4.72,4.72,0,0,0-.95-.83,20.67,20.67,0,0,1-2.15-2.47,53.87,53.87,0,0,1-4.62-7.52c-.67-1.29-1.24-2.69-1.78-4-.25-.49-.25-1.24-.66-1.49a15.54,15.54,0,0,0-2,2.81c-.79,1.78-.87,4-1.16,6.24l-.16.08c-1.32-.33-1.78-1.69-2.28-2.84a18,18,0,0,1-.37-11c.29-.87,1.53-3.6,1-4.42-.25-.79-1.08-1.24-1.53-1.86a17.66,17.66,0,0,1-1.49-2.64c-1-2.32-1.49-4.88-2.56-7.19a21.82,21.82,0,0,0-2.06-3.18,21.12,21.12,0,0,1-2.28-3.22c-.2-.46-.49-1.2-.16-1.69A.66.66,0,0,1,91,27c.53-.45,2.06.12,2.6.37a21.44,21.44,0,0,1,4.09,2.06c.58.42,1.2,1.2,1.94,1.41h.87c1.32.29,2.8.08,4,.45a27.06,27.06,0,0,1,6,2.85A36.64,36.64,0,0,1,123.4,48.25c.5,1,.71,1.82,1.16,2.8.87,2,1.94,4.09,2.81,6.08a27.2,27.2,0,0,0,2.93,5.53c.62.87,3.1,1.32,4.22,1.78a30.05,30.05,0,0,1,2.84,1.15c1.41.87,2.81,1.86,4.13,2.81.66.5,2.73,1.53,2.85,2.36M102.21,34.87a6.41,6.41,0,0,0-1.69.2v.09h.08a13,13,0,0,0,1.32,1.69c.34.66.63,1.32,1,2l.08-.08a2.32,2.32,0,0,0,.87-2.07,7.52,7.52,0,0,1-.49-.86c-.25-.42-.78-.62-1.12-1" fill="#222"/><path d="M148.27,116.38h.86v-4.19h-1.29l-1,2.86-1.14-2.86h-1.24v4.19h.81v-3.19h.05l1.19,3.19h.61l1.19-3.19v3.19Zm-6.89,0h.9V112.9h1.19v-.71h-3.33v.71h1.24v3.48Z" fill="#222"/></svg>