<svg id="Layer_1" data-name="Layer 1" xmlns="http://www.w3.org/2000/svg" viewBox="0 0 150 150"><path d="M148.56,75c0-9.74-12.2-19-30.92-24.71,4.32-19.07,2.4-34.24-6-39.1a13.15,13.15,0,0,0-6.72-1.68v6.69a7,7,0,0,1,3.42.78c4.08,2.34,5.85,11.24,4.47,22.7-.33,2.82-.87,5.79-1.53,8.81a147.11,147.11,0,0,0-19-3.26,145,145,0,0,0-12.47-15c9.77-9.08,19-14.06,25.19-14.06V9.49h0c-8.25,0-19,5.88-30,16.07C64,15.43,53.23,9.61,45,9.61V16.3c6.21,0,15.42,4.94,25.19,14a140.44,140.44,0,0,0-12.38,15,141.69,141.69,0,0,0-19.08,3.29c-.69-3-1.2-5.9-1.56-8.69-1.41-11.46.33-20.36,4.38-22.73A6.68,6.68,0,0,1,45,16.33V9.64h0a13.38,13.38,0,0,0-6.78,1.68c-8.42,4.86-10.31,20-6,39C13.58,56.09,1.44,65.3,1.44,75s12.2,19,30.92,24.72C28,118.8,30,134,38.41,138.83a13.19,13.19,0,0,0,6.75,1.68c8.25,0,19-5.88,30-16.07,10.92,10.13,21.71,15.95,30,15.95a13.38,13.38,0,0,0,6.78-1.68c8.42-4.86,10.31-20,6-39C136.42,94,148.56,84.73,148.56,75Zm-39-20c-1.11,3.87-2.49,7.86-4,11.85-1.23-2.4-2.52-4.8-3.93-7.2s-2.85-4.74-4.32-7C101.48,53.27,105.59,54.05,109.52,55ZM95.78,87c-2.34,4-4.74,7.89-7.23,11.46-4.46.39-9,.6-13.55.6s-9.06-.21-13.5-.57C59,94.87,56.59,91.06,54.25,87S49.9,79.12,48,75.1c1.86-4,4-8,6.21-12S59,55.25,61.45,51.68c4.46-.39,9-.6,13.55-.6s9.06.21,13.49.57q3.74,5.35,7.26,11.4T102,75C100.1,79,98,83,95.78,87Zm9.69-3.9c1.62,4,3,8,4.14,11.94-3.93,1-8.07,1.77-12.36,2.4,1.47-2.31,2.94-4.68,4.32-7.11S104.24,85.45,105.47,83.05Zm-30.41,32a123.68,123.68,0,0,1-8.34-9.6c2.7.12,5.46.21,8.25.21s5.61-.06,8.34-.21A117.1,117.1,0,0,1,75.06,115.05ZM52.75,97.39C48.49,96.76,44.38,96,40.45,95c1.11-3.87,2.49-7.86,4-11.85,1.23,2.4,2.52,4.8,3.93,7.2S51.28,95.11,52.75,97.39ZM74.91,35a123.68,123.68,0,0,1,8.34,9.6c-2.7-.12-5.46-.21-8.25-.21s-5.61.06-8.34.21A117.1,117.1,0,0,1,74.91,35ZM52.72,52.64c-1.47,2.31-2.94,4.68-4.32,7.11s-2.67,4.8-3.9,7.2c-1.62-4-3-8-4.14-11.94C44.29,54.08,48.43,53.27,52.72,52.64ZM25.58,90.19C15,85.66,8.09,79.72,8.09,75S15,64.34,25.58,59.84c2.58-1.11,5.4-2.1,8.31-3a141.79,141.79,0,0,0,6.74,18.26A140.45,140.45,0,0,0,34,93.25C31,92.32,28.19,91.3,25.58,90.19ZM41.71,133c-4.08-2.34-5.85-11.24-4.47-22.7.33-2.82.87-5.79,1.53-8.81a147.11,147.11,0,0,0,19,3.26,145,145,0,0,0,12.47,15c-9.77,9.08-19,14.06-25.19,14.06A7.16,7.16,0,0,1,41.71,133Zm71.14-22.85c1.41,11.46-.33,20.36-4.38,22.73a6.68,6.68,0,0,1-3.45.78c-6.21,0-15.42-4.94-25.19-14a140.44,140.44,0,0,0,12.38-15,141.69,141.69,0,0,0,19.08-3.29A83.35,83.35,0,0,1,112.85,110.19Zm11.54-20c-2.58,1.11-5.4,2.1-8.31,3A141.79,141.79,0,0,0,109.34,75,140.45,140.45,0,0,0,116,56.78c3,.93,5.79,1.95,8.43,3.06C135,64.37,141.91,70.31,141.91,75S135,85.69,124.39,90.19Z" fill="#222"/><circle cx="74.97" cy="75.01" r="13.7" fill="#222"/></svg>