<svg id="Layer_1" data-name="Layer 1" xmlns="http://www.w3.org/2000/svg" viewBox="0 0 150 150"><path d="M146.78,34.49a2.49,2.49,0,0,1,.08.61V66.86a2.32,2.32,0,0,1-1.16,2L119,84.21v30.42a2.32,2.32,0,0,1-1.16,2l-55.64,32a2.4,2.4,0,0,1-.4.17.76.76,0,0,1-.16.06,2.36,2.36,0,0,1-1.18,0l-.19-.07a3.08,3.08,0,0,1-.38-.16l-55.63-32a2.31,2.31,0,0,1-1.16-2V19.36a2.43,2.43,0,0,1,.08-.61c0-.07.06-.13.08-.2a1.84,1.84,0,0,1,.15-.36c0-.07.11-.13.16-.2a1.71,1.71,0,0,1,.2-.27A1.7,1.7,0,0,1,4,17.55a1.64,1.64,0,0,1,.26-.2h0l27.82-16a2.32,2.32,0,0,1,2.31,0l27.82,16h0a2.48,2.48,0,0,1,.26.19,1.92,1.92,0,0,1,.22.18,2.78,2.78,0,0,1,.21.27c.05.07.12.13.16.2s.1.24.15.36.06.13.08.2a2.49,2.49,0,0,1,.08.61v59.5L86.59,65.52V35.1a2.49,2.49,0,0,1,.08-.61c0-.07.06-.13.08-.19a3,3,0,0,1,.15-.36c0-.08.11-.14.16-.21a2.78,2.78,0,0,1,.21-.27c.06-.06.15-.11.22-.17a1.64,1.64,0,0,1,.26-.2h0l27.82-16a2.32,2.32,0,0,1,2.31,0l27.82,16a2.56,2.56,0,0,1,.26.2,1.84,1.84,0,0,1,.22.17,1.78,1.78,0,0,1,.21.27,1.06,1.06,0,0,1,.16.21,1.94,1.94,0,0,1,.15.36A1.08,1.08,0,0,1,146.78,34.49Zm-4.56,31V39.11l-9.73,5.6L119,52.45V78.86l23.19-13.34Zm-27.81,47.77V86.86l-13.23,7.56L63.41,116v26.67ZM7.78,23.36v89.93l51,29.36V116L32.13,100.9h0a2.35,2.35,0,0,1-.25-.19,1.84,1.84,0,0,1-.22-.17h0c-.07-.07-.12-.16-.19-.24s-.12-.15-.17-.23h0a1.19,1.19,0,0,1-.12-.29A1.45,1.45,0,0,1,31,99.5h0a1.86,1.86,0,0,1-.05-.34,2,2,0,0,1,0-.26h0V36.71L17.51,29,7.78,23.37ZM33.28,6,10.1,19.36,33.27,32.7,56.44,19.35,33.27,6Zm12,83.26,13.44-7.74V23.36L49,29,35.59,36.71V94.88Zm71.4-67.51L93.55,35.1l23.18,13.34L139.9,35.1Zm-2.32,30.69L101,44.71l-9.73-5.6V65.52l13.44,7.74,9.74,5.6ZM61.09,112l34-19.41,17-9.69L88.91,69.53,62.25,84.88,38,98.87Z" fill="#222" fill-rule="evenodd"/></svg>