<svg id="Layer_1" data-name="Layer 1" xmlns="http://www.w3.org/2000/svg" viewBox="0 0 150 150"><path d="M75,11a63.81,63.81,0,0,1,43.32,16.88c-5.59-.15-11.17,3.17-11.4,10.78-.47,15.37,18.39,18.65,8.23,49.58l-8.41,25.58L83.85,46.36c-.35-1,.06-1.63,1.34-1.63h6.47a.63.63,0,0,0,.61-.64V40.25a.62.62,0,0,0-.61-.64q-18.37.81-36.55,0a.63.63,0,0,0-.61.64v3.84a.63.63,0,0,0,.61.64h6.51c1.45,0,1.85.48,2.2,1.41l9.4,25.72L59.07,114.59,35.82,46.08c-.29-.85.06-1.35.88-1.35h7.42a.63.63,0,0,0,.61-.64V40.25a.61.61,0,0,0-.61-.63c-7.78.41-15.59.49-22.86.57A64,64,0,0,1,75,11Zm56.32,33.54a64.07,64.07,0,0,1-25.59,86.67l20-56.56c3.1-8.75,6-20.58,5.62-30.11ZM96.44,135.35a64.35,64.35,0,0,1-40.06.93L76.1,79.75l20.34,55.6ZM47.6,132.88A64.08,64.08,0,0,1,16.72,48.45L47.6,132.89h0ZM75,5A70,70,0,1,1,5,75,70,70,0,0,1,75,5ZM75,.53A74.47,74.47,0,1,1,.53,75,74.48,74.48,0,0,1,75,.53Z" fill="#222" fill-rule="evenodd"/></svg>